<svg xmlns="http://www.w3.org/2000/svg" viewBox="0 0 64 64" role="img" aria-labelledby="title">
  <title id="title">ARIA</title>
  <defs>
    <radialGradient id="bg" cx="50%" cy="38%" r="68%">
      <stop offset="0" stop-color="#0a2540"/>
      <stop offset="1" stop-color="#030d1a"/>
    </radialGradient>
    <linearGradient id="mic" x1="23" x2="41" y1="18" y2="42">
      <stop offset="0" stop-color="#38b6ff"/>
      <stop offset="1" stop-color="#0d47a1"/>
    </linearGradient>
  </defs>
  <rect width="64" height="64" rx="16" fill="#030d1a"/>
  <circle cx="32" cy="32" r="25" fill="url(#bg)" stroke="#2196f3" stroke-opacity=".45" stroke-width="1.5"/>
  <path d="M12 32a20 20 0 0 1 20-20" fill="none" stroke="#0a3c78" stroke-opacity=".75" stroke-width="2.5" stroke-linecap="round"/>
  <path d="M32 12a20 20 0 0 1 20 20" fill="none" stroke="#38b6ff" stroke-opacity=".9" stroke-width="2.5" stroke-linecap="round"/>
  <g fill="#38b6ff" opacity=".35">
    <rect x="16" y="29" width="3" height="6" rx="1.5"/>
    <rect x="21" y="27" width="3" height="10" rx="1.5"/>
    <rect x="26" y="30" width="3" height="4" rx="1.5"/>
  </g>
  <g fill="#38b6ff">
    <rect x="36" y="25" width="3" height="14" rx="1.5"/>
    <rect x="41" y="21" width="3" height="22" rx="1.5"/>
    <rect x="46" y="27" width="3" height="10" rx="1.5"/>
  </g>
  <rect x="28" y="18" width="8" height="18" rx="4" fill="url(#mic)"/>
  <path d="M23 32a9 9 0 0 0 18 0M32 41v6M26 47h12" fill="none" stroke="#38b6ff" stroke-width="2" stroke-linecap="round"/>
</svg>
